<svg xmlns="http://www.w3.org/2000/svg" xmlns:xlink="http://www.w3.org/1999/xlink" version="1.1" x="0px" y="0px" viewBox="0 0 100 100" enable-background="new 0 0 100 100" xml:space="preserve"><path fill="#000000" d="M27.2,16.7H8.3V25h12.4l1.4,5.1l7,28.2h54.2L91.7,25H29.4L27.2,16.7z M81,33.3L76.8,50H35.7l-4.2-16.7H81z"></path><path fill="#000000" d="M87.5,75c0-4.6-3.7-8.3-8.3-8.3s-8.3,3.7-8.3,8.3s3.7,8.3,8.3,8.3S87.5,79.6,87.5,75z"></path><path fill="#000000" d="M41.7,75c0-4.6-3.7-8.3-8.3-8.3S25,70.4,25,75s3.7,8.3,8.3,8.3S41.7,79.6,41.7,75z"></path></svg>