<svg xmlns="http://www.w3.org/2000/svg" xmlns:xlink="http://www.w3.org/1999/xlink" version="1.1" x="0px" y="0px" viewBox="0 0 100 100" enable-background="new 0 0 100 100" xml:space="preserve"><polygon fill="#000000" points="27.2,16.7 8.3,16.7 8.3,25 20.8,25 22.1,30.1 29.2,58.3 83.3,58.3 91.7,25 29.4,25 "></polygon><path fill="#000000" d="M87.5,75c0-4.6-3.7-8.3-8.3-8.3s-8.3,3.7-8.3,8.3s3.7,8.3,8.3,8.3S87.5,79.6,87.5,75z"></path><path fill="#000000" d="M41.7,75c0-4.6-3.7-8.3-8.3-8.3S25,70.4,25,75s3.7,8.3,8.3,8.3S41.7,79.6,41.7,75z"></path></svg>